<mxfile host="app.diagrams.net" modified="2024-03-13T07:30:21.370Z" agent="Mozilla/5.0 (Macintosh; Intel Mac OS X 10_15_7) AppleWebKit/537.36 (KHTML, like Gecko) Chrome/122.0.0.0 Safari/537.36" etag="OXglhUhEAPW90f0zpMWt" version="24.0.2" type="github">
  <diagram name="第 1 页" id="pYIGvLJ2iA0e7sMpxXfe">
    <mxGraphModel dx="1060" dy="601" grid="1" gridSize="10" guides="1" tooltips="1" connect="1" arrows="1" fold="1" page="1" pageScale="1" pageWidth="827" pageHeight="1169" math="0" shadow="0">
      <root>
        <mxCell id="0" />
        <mxCell id="1" parent="0" />
        <mxCell id="SSwoLiU7IabvUppJNZOK-1" value="&lt;h2&gt;链A&lt;/h2&gt;" style="rounded=0;whiteSpace=wrap;html=1;align=center;labelPosition=center;verticalLabelPosition=top;verticalAlign=bottom;" vertex="1" parent="1">
          <mxGeometry x="160" y="70" width="190" height="300" as="geometry" />
        </mxCell>
        <mxCell id="SSwoLiU7IabvUppJNZOK-2" value="&lt;h2&gt;跨链桥&lt;/h2&gt;" style="rounded=0;whiteSpace=wrap;html=1;align=center;labelPosition=center;verticalLabelPosition=top;verticalAlign=bottom;" vertex="1" parent="1">
          <mxGeometry x="414" y="70" width="306" height="300" as="geometry" />
        </mxCell>
        <mxCell id="SSwoLiU7IabvUppJNZOK-6" value="&lt;h2&gt;链B&lt;/h2&gt;" style="rounded=0;whiteSpace=wrap;html=1;align=center;labelPosition=center;verticalLabelPosition=top;verticalAlign=bottom;" vertex="1" parent="1">
          <mxGeometry x="750" y="70" width="190" height="300" as="geometry" />
        </mxCell>
        <mxCell id="SSwoLiU7IabvUppJNZOK-9" value="跨链合约" style="rounded=0;whiteSpace=wrap;html=1;" vertex="1" parent="1">
          <mxGeometry x="260" y="179" width="90" height="60" as="geometry" />
        </mxCell>
        <mxCell id="SSwoLiU7IabvUppJNZOK-11" value="" style="shape=singleArrow;whiteSpace=wrap;html=1;" vertex="1" parent="1">
          <mxGeometry x="120" y="189" width="140" height="40" as="geometry" />
        </mxCell>
        <mxCell id="SSwoLiU7IabvUppJNZOK-12" value="验证器" style="rounded=0;whiteSpace=wrap;html=1;" vertex="1" parent="1">
          <mxGeometry x="433.5" y="120" width="151" height="40" as="geometry" />
        </mxCell>
        <mxCell id="SSwoLiU7IabvUppJNZOK-19" value="" style="edgeStyle=orthogonalEdgeStyle;rounded=0;orthogonalLoop=1;jettySize=auto;html=1;" edge="1" parent="1" source="SSwoLiU7IabvUppJNZOK-13" target="SSwoLiU7IabvUppJNZOK-15">
          <mxGeometry relative="1" as="geometry" />
        </mxCell>
        <mxCell id="SSwoLiU7IabvUppJNZOK-13" value="验证器" style="rounded=0;whiteSpace=wrap;html=1;" vertex="1" parent="1">
          <mxGeometry x="433.5" y="180" width="151" height="40" as="geometry" />
        </mxCell>
        <mxCell id="SSwoLiU7IabvUppJNZOK-14" value="验证器" style="rounded=0;whiteSpace=wrap;html=1;" vertex="1" parent="1">
          <mxGeometry x="433.5" y="240" width="151" height="40" as="geometry" />
        </mxCell>
        <mxCell id="SSwoLiU7IabvUppJNZOK-15" value="relayer" style="rounded=0;whiteSpace=wrap;html=1;" vertex="1" parent="1">
          <mxGeometry x="610" y="120" width="90" height="160" as="geometry" />
        </mxCell>
        <mxCell id="SSwoLiU7IabvUppJNZOK-21" value="" style="endArrow=classic;html=1;rounded=0;exitX=1.002;exitY=0.562;exitDx=0;exitDy=0;exitPerimeter=0;entryX=0.004;entryY=0.139;entryDx=0;entryDy=0;entryPerimeter=0;" edge="1" parent="1" source="SSwoLiU7IabvUppJNZOK-12" target="SSwoLiU7IabvUppJNZOK-15">
          <mxGeometry width="50" height="50" relative="1" as="geometry">
            <mxPoint x="590" y="140" as="sourcePoint" />
            <mxPoint x="610" y="120" as="targetPoint" />
          </mxGeometry>
        </mxCell>
        <mxCell id="SSwoLiU7IabvUppJNZOK-22" value="" style="edgeStyle=orthogonalEdgeStyle;rounded=0;orthogonalLoop=1;jettySize=auto;html=1;exitX=1;exitY=0.5;exitDx=0;exitDy=0;entryX=0.006;entryY=0.872;entryDx=0;entryDy=0;entryPerimeter=0;" edge="1" parent="1" source="SSwoLiU7IabvUppJNZOK-14" target="SSwoLiU7IabvUppJNZOK-15">
          <mxGeometry relative="1" as="geometry">
            <mxPoint x="595" y="210" as="sourcePoint" />
            <mxPoint x="620" y="210" as="targetPoint" />
          </mxGeometry>
        </mxCell>
        <mxCell id="SSwoLiU7IabvUppJNZOK-23" value="跨链合约" style="rounded=0;whiteSpace=wrap;html=1;" vertex="1" parent="1">
          <mxGeometry x="750" y="170" width="90" height="60" as="geometry" />
        </mxCell>
        <mxCell id="SSwoLiU7IabvUppJNZOK-24" value="" style="shape=singleArrow;whiteSpace=wrap;html=1;" vertex="1" parent="1">
          <mxGeometry x="700" y="180" width="50" height="30" as="geometry" />
        </mxCell>
        <mxCell id="SSwoLiU7IabvUppJNZOK-26" value="" style="shape=singleArrow;whiteSpace=wrap;html=1;rotation=-180;" vertex="1" parent="1">
          <mxGeometry x="351" y="194" width="60" height="30" as="geometry" />
        </mxCell>
      </root>
    </mxGraphModel>
  </diagram>
</mxfile>
